<svg xmlns="http://www.w3.org/2000/svg" xml:space="preserve" width="2000" height="122" data-id="lg_DZxbKx4ngodKQCScOK" data-version="1" viewBox="0 0 2000 122"><g data-padding="20"><g transform="translate(10 2.179)scale(.96429)"><rect width="273.008" height="122.04" x="489.661" y="-400.18" fill="none" rx="0" ry="0" transform="translate(257 400.16)"/><path fill="#1b1b1b" d="M766.835 118.2h-11.24V37.74h11.24V50.7l-1.73-.97q.65-3.24 3.67-6.21t7.4-4.86q4.37-1.89 9.02-1.89 7.66 0 13.6 3.78t9.4 10.36q3.46 6.59 3.46 15.12 0 8.43-3.41 15.07-3.4 6.64-9.34 10.48-5.94 3.83-13.39 3.83-4.97 0-9.61-2-4.65-2-7.89-5.13t-3.99-6.48l2.81-1.51Zm16.84-33.05q4.97 0 8.86-2.48 3.89-2.49 6.16-6.81 2.26-4.32 2.26-9.83 0-5.5-2.21-9.77t-6.1-6.75-8.97-2.48q-5.07 0-8.96 2.43t-6.16 6.75q-2.26 4.32-2.26 9.82 0 5.51 2.26 9.83 2.27 4.32 6.16 6.81 3.89 2.48 8.96 2.48m62.32 10.36q-8.32 0-14.85-3.84-6.53-3.83-10.31-10.47t-3.78-15.18q0-8.53 3.78-15.17t10.31-10.48q6.53-3.83 14.85-3.83 8.21 0 14.74 3.83 6.54 3.84 10.32 10.48t3.78 15.17q0 8.54-3.78 15.18t-10.32 10.47q-6.53 3.84-14.74 3.84m0-10.15q5.08 0 9.07-2.54 4-2.54 6.27-6.91 2.26-4.38 2.16-9.89.1-5.61-2.16-9.99-2.27-4.37-6.27-6.85-3.99-2.49-9.07-2.49t-9.13 2.54-6.31 6.91q-2.27 4.38-2.16 9.88-.11 5.51 2.16 9.89 2.26 4.37 6.31 6.91t9.13 2.54m48.91 9.08h-11.23v-56.7h11.23v17.82l-1.08-4.32q1.19-4.11 4.05-7.45 2.87-3.35 6.59-5.3 3.73-1.94 7.72-1.94 1.84 0 3.51.32 1.68.33 2.65.76l-2.92 12.1q-1.29-.54-2.86-.92-1.56-.38-3.08-.38-2.91 0-5.56 1.13-2.64 1.14-4.64 3.14-2 1.99-3.19 4.64t-1.19 5.78Zm47.21 0h-11.12V23.27h11.12Zm13.18-45.9h-36.08v-10.8h36.08Z"/><path fill="#1b1b1b" d="M983.695 119.27h-11.99l11.45-26.46.11 8.85-28.3-63.93h12.96l17.71 41.69q.54 1.08 1.3 3.29t1.3 4.37l-2.81.65q.86-2.27 1.67-4.53.81-2.27 1.57-4.54l14.79-40.93h13.18l-23.33 56.7Z"/><path fill="#464646" fill-rule="evenodd" d="M1094.39 106.32c-.46-.46-.46-1.15-.46-1.61l1.84-10.12h-37.49l-1.84 10.81c-.23.92-.92 1.61-2.07 1.61h-11.27c-1.38 0-2.3-1.15-2.07-2.53l1.84-10.12h-10.35c-1.38 0-2.3-1.15-2.07-2.53l2.07-11.27c.23-.92.92-1.61 2.07-1.61h11.04l6.44-36.8h-10.35c-1.38 0-2.3-1.15-2.07-2.53l2.07-11.27c.23-.92.92-1.61 2.07-1.61h11.04l1.84-10.81c.23-.92.92-1.61 2.07-1.61h11.27c1.38 0 2.3 1.15 2.07 2.53l-1.84 10.12h37.49l1.84-10.81c.23-.92.92-1.61 2.07-1.61h11.27c1.38 0 2.3 1.15 2.07 2.53l-1.84 10.12h10.35c1.38 0 2.3 1.15 2.07 2.53L1133.49 41c-.23.92-.92 1.61-2.07 1.61h-11.04l-6.44 36.8h10.35c1.38 0 2.3 1.15 2.07 2.53l-2.07 11.27c-.23.92-.92 1.61-2.07 1.61h-11.04l-1.84 10.81c-.23.92-.92 1.61-2.07 1.61H1096m-28.52-64.86-6.44 36.8h37.49l6.44-36.8Z"/><rect width="155.653" height="79.1" x="548.339" y="-378.71" fill="none" rx="0" ry="0" transform="translate(602.68 403.09)"/><path fill="#1b1b1b" d="M1185.305 85.42h-31.15v-2.87q0-3.43 1.89-6.27 1.89-2.83 4.83-5.28t6.3-4.73q3.36-2.27 6.3-4.44t4.83-4.52q1.89-2.34 1.89-5 0-4.06-2.69-6.37-2.7-2.31-7.74-2.31-4.62 0-7.52 2.06-2.91 2.07-3.47 5.99h-5.25q.42-3.99 2.63-6.97 2.2-2.97 5.7-4.58t7.77-1.61q5.04 0 8.58 1.82 3.53 1.82 5.39 4.9 1.85 3.08 1.85 6.93 0 3.22-1.75 6.02t-4.55 5.25-5.91 4.62q-3.12 2.17-5.99 4.23-2.87 2.07-4.76 4.06-1.89 2-2.1 4.03h24.92Zm22.96.56q-8.19 0-12.22-6.06-4.02-6.05-4.02-17.67t4.02-17.68q4.03-6.05 12.22-6.05 4.76.07 7.91 2.06 3.15 2 4.97 5.36t2.59 7.56.77 8.75q0 11.62-4.02 17.67-4.03 6.06-12.22 6.06m0-5.11q3.57-.07 5.74-1.75t3.33-4.41q1.15-2.73 1.54-5.99.38-3.25.38-6.47 0-9.31-2.59-13.97-2.59-4.65-8.4-4.65-5.74 0-8.36 4.65-2.63 4.66-2.63 13.97t2.63 13.96q2.62 4.66 8.36 4.66m54.04 4.55h-31.15v-2.87q0-3.43 1.89-6.27 1.89-2.83 4.83-5.28t6.3-4.73q3.36-2.27 6.3-4.44t4.83-4.52q1.89-2.34 1.89-5 0-4.06-2.69-6.37-2.7-2.31-7.74-2.31-4.62 0-7.52 2.06-2.91 2.07-3.47 5.99h-5.25q.42-3.99 2.63-6.97 2.2-2.97 5.7-4.58t7.77-1.61q5.04 0 8.58 1.82 3.53 1.82 5.39 4.9 1.85 3.08 1.85 6.93 0 3.22-1.75 6.02t-4.55 5.25-5.91 4.62q-3.12 2.17-5.99 4.23-2.87 2.07-4.76 4.06-1.89 2-2.1 4.03h24.92Zm33.25 0h-5.25V73.59h-22.12v-5.11l19.46-29.4h7.91V68.9h6.23v4.69h-6.23Zm-5.25-41.86-17.22 25.34h17.22Z"/></g><path fill="transparent" stroke="transparent" d="M720 0h560v122H720z"/></g></svg>